<svg id="Capa_1" enable-background="new 0 0 512 512" height="512" viewBox="0 0 512 512" width="512" fill="white" style="display:inline-block;position:relative;top:.1em;" xmlns="http://www.w3.org/2000/svg"><g><g><path d="m511.472 339.449-30.948-91.365c15.46-30.779 21.308-66.322 16.476-100.599-5.209-36.952-21.974-70.463-48.482-96.913-26.764-26.704-60.697-43.475-98.131-48.499-36.227-4.859-73.707 2.103-105.54 19.607-4.839 2.662-6.605 8.742-3.944 13.581 2.661 4.84 8.744 6.605 13.581 3.944 58.58-32.214 132.56-21.719 179.907 25.524 46.722 46.617 57.611 119.733 26.482 177.805-1.308 2.439-1.546 5.312-.658 7.933l26.113 77.091-80.005-23.815c-2.521-.75-5.239-.477-7.562.763-24.611 13.139-51.384 18.968-77.679 17.891-.854-.237-1.749-.374-2.678-.374-.549 0-1.084.056-1.609.141-35.389-2.466-69.647-17.47-96.293-44.057-47.347-47.242-57.866-121.045-25.579-179.475 2.671-4.834.918-10.918-3.916-13.589-4.832-2.669-10.917-.917-13.589 3.916-17.564 31.785-24.552 69.201-19.679 105.357 1.41 10.457 3.744 20.64 6.96 30.47h-142.624c-12.172 0-22.075 9.891-22.075 22.049v174.024c0 12.158 9.903 22.048 22.075 22.048h23.051v58.53c0 3.812 2.167 7.292 5.587 8.974 1.399.688 2.909 1.026 4.411 1.026 2.169 0 4.323-.705 6.107-2.08l86.195-66.45h158.901c12.172 0 22.075-9.891 22.075-22.048v-78.597c26.353-.192 52.604-6.411 76.08-18.199l94.664 28.179c.939.28 1.899.416 2.852.416 2.677 0 5.289-1.077 7.202-3.062 2.595-2.693 3.471-6.607 2.272-10.147zm-205.144 83.459h-162.308c-2.209 0-4.356.731-6.105 2.08l-72.788 56.114v-48.194c0-5.523-4.477-10-10-10h-33.052c-1.105 0-2.075-.957-2.075-2.048v-174.025c0-1.091.97-2.049 2.075-2.049h150.621c8.305 17.443 19.616 33.447 33.679 47.479 26.507 26.448 60.083 43.171 97.097 48.363 1.641.23 3.285.428 4.931.61v79.621c0 1.091-.969 2.049-2.075 2.049z"/><path d="m240.559 259.059c24.087 24.049 55.717 36.069 87.355 36.069 31.632 0 63.272-12.025 87.353-36.066 23.33-23.279 36.181-54.233 36.187-87.161.005-32.941-12.846-63.916-36.187-87.22-48.168-48.06-126.54-48.06-174.706 0 0 .001-.001.001-.002.002-23.339 23.302-36.189 54.276-36.184 87.218.004 32.927 12.856 63.882 36.184 87.158zm97.369-73.051 56.347 65.156c-16.433 13.717-36.155 21.553-56.347 23.495zm-20 88.653c-20.201-1.937-39.933-9.774-56.374-23.497l56.374-65.164zm113.525-102.763c-.004 23.956-8.131 46.663-23.076 64.998l-70.449-81.462v-86.33c23.089 2.219 45.568 12.129 63.21 29.733 19.553 19.522 30.319 45.468 30.315 73.061zm-176.766-73.059c17.651-17.612 40.142-27.525 63.241-29.738v86.332l-70.476 81.465c-14.945-18.334-23.074-41.043-23.077-65-.005-27.591 10.761-53.537 30.312-73.059z"/><path d="m66.04 302.992h21.174c5.523 0 10-4.477 10-10s-4.477-10-10-10h-21.174c-5.523 0-10 4.477-10 10s4.477 10 10 10z"/><path d="m127.21 302.992h36.991c5.523 0 10-4.477 10-10s-4.477-10-10-10h-36.991c-5.523 0-10 4.477-10 10s4.477 10 10 10z"/><path d="m66.04 348.188h141.73c5.523 0 10-4.477 10-10s-4.477-10-10-10h-141.73c-5.523 0-10 4.477-10 10s4.477 10 10 10z"/><path d="m262.363 373.356h-57.173c-5.523 0-10 4.477-10 10s4.477 10 10 10h57.173c5.522 0 10-4.477 10-10s-4.477-10-10-10z"/><path d="m155.216 373.356h-89.176c-5.523 0-10 4.477-10 10s4.477 10 10 10h89.176c5.523 0 10-4.477 10-10s-4.477-10-10-10z"/><path d="m213.417 67.658c2.567 0 5.136-.98 7.092-2.936 3.905-3.905 3.905-10.237 0-14.143-3.905-3.905-10.237-3.905-14.143 0l-.028.028c-3.905 3.905-3.891 10.223.014 14.128 1.951 1.95 4.507 2.923 7.065 2.923z"/></g></g></svg>
