<svg height="512" viewBox="0 0 56 56" width="512" xmlns="http://www.w3.org/2000/svg"><g id="Page-1" fill="none" fill-rule="evenodd"><g id="034---Fighter-Game" fill="rgb(0,0,0)" fill-rule="nonzero"><path id="Shape" d="m1 5h12c.5522847 0 1-.44771525 1-1s-.4477153-1-1-1h-12c-.26092243-.00262758-.51160366.10140151-.694.288-.19609171.18479156-.30687326.44255776-.306.712 0 .55228475.44771525 1 1 1z"/><path id="Shape" d="m49 5h6c.2609224.00262758.5116037-.10140151.694-.288.1960917-.18479156.3068733-.44255776.306-.712 0-.55228475-.4477153-1-1-1h-6c-.5522847 0-1 .44771525-1 1s.4477153 1 1 1z"/><circle id="Oval" cx="28" cy="4" r="4"/><path id="Shape" d="m45 5c.5522847 0 1-.44771525 1-1s-.4477153-1-1-1h-11.09c.0578863.33023338.0879917.6647376.09 1-.0020083.3352624-.0321137.66976662-.09 1z"/><path id="Shape" d="m17 5h5.09c-.0578863-.33023338-.0879917-.6647376-.09-1 .0020083-.3352624.0321137-.66976662.09-1h-5.09c-.5522847 0-1 .44771525-1 1s.4477153 1 1 1z"/><path id="Shape" d="m20.5 30c-.8284271 0-1.5.6715729-1.5 1.5s.6715729 1.5 1.5 1.5h4c.8284271 0 1.5-.6715729 1.5-1.5s-.6715729-1.5-1.5-1.5z"/><path id="Shape" d="m20.991 23.009 9.509-.009c.5358984 0 1.031089-.2858984 1.2990382-.75s.2679492-1.0358984 0-1.5-.7631398-.75-1.2990382-.75h-9.5z"/><path id="Shape" d="m28.565 17.563c.2780764-.2783502.4329615-.6565581.43-1.05.0011131-.8321681-.6708428-1.5085948-1.503-1.513h-6.492v3.000028l6.5-.000028c.3991212.0024411.7826252-.1549216 1.065-.437z"/><path id="Shape" d="m27.506 28c.3959352.0018642.7762648-.1542529 1.0567052-.4337548.2804405-.2795019.4378317-.659306.4372948-1.0552452.0044445-.4014696-.1522423-.7879637-.435-1.073-.2834768-.2793518-.6670474-.4335004-1.065-.428h-6.78c-.329137.5913083-.9464629.9644424-1.623.981-.0633275.1644594-.0971784.3387919-.1.515-.0040804.3951272.1508729.7753033.43 1.055.2843772.2842235.6709529.4423844 1.073.439h7.007z"/><path id="Shape" d="m7.8 30.581c1.71476503 1.623239 4.0069827 2.4941161 6.367 2.419h3.182c-.6589894-1.3450723-.3736377-2.9617954.706-4-.013-.012-.028-.021-.041-.033-.654022-.6538346-1.0191712-1.5422202-1.014-2.467.0014593-.20899.0212013-.4174515.059-.623-1.7909497-.4334797-3.054051-2.034344-3.059-3.877v-6c0-.5522847.4477153-1 1-1s1 .4477153 1 1v6c0 1.1045695.8954305 2 2 2h1v-10.991c.0024011-.5330321-.2080772-1.0449696-.5847098-1.4221655-.3766327-.377196-.8882551-.588439-1.4212902-.5868345l-1.989.01c-3.039-.01-3.83.448-6.813 4.075-1.09008353 1.1662197-2.5967908 1.8545175-4.192 1.915h-3c-.55228475 0-1 .4477153-1 1v10c0 .5522847.44771525 1 1 1h3c1.42405903.012827 2.78710398.5799254 3.8 1.581z"/><path id="Shape" d="m55 40h-3c-1.5955089-.0604374-3.1025441-.7487208-4.193-1.915-2.987-3.632-3.753-4.112-6.8-4.084l-2.007-.007c-.5314742-.0000024-1.0410934.2115347-1.4163391.5879062-.3752457.3763714-.5852553.886622-.5836609 1.4180938l.007 10.991 1 .005c1.1050447-.008223 1.9972885-.904928 2-2.01v-5.992c0-.5522847.4477153-1 1-1s1 .4477153 1 1v6c-.0109894 1.8439388-1.2747824 3.4440838-3.066 3.882.0378314.2058807.0575734.4146772.059.624.005836.9239294-.3586373 1.811703-1.012 2.465-.013.013-.028.021-.041.034 1.0799791 1.0379641 1.3657402 2.6547173.707 4h3.18.023c2.3498527.075753 4.6319-.7941987 6.335-2.415 1.0158209-1.0019487 2.3812571-1.5699243 3.808-1.584h3c.5522847 0 1-.4477153 1-1v-10c0-.5522847-.4477153-1-1-1z"/><path id="Shape" d="m35 43h-9.5c-.8284271-.001933-1.501567.6680729-1.5035 1.4965s.6680729 1.501567 1.4965 1.5035h9.512z"/><path id="Shape" d="m28.5 41h6.5v-3.006l-6.491.006c-.8259328.0059912-1.4940088.6740672-1.5 1.5-.0040804.3951272.1508729.7753033.43 1.055.2804583.2834647.6622431.4435912 1.061.445z"/><path id="Shape" d="m36.568 50.555c.2780764-.2783502.4329615-.6565581.43-1.05-.0026312-.1788257-.036473-.3558179-.1-.523-.6755923-.0162964-1.2916838-.390216-1.618-.982h-6.78c-.6049695.0017349-1.1496812.3667177-1.3813536.9255728s-.1049525 1.2021788.3213536 1.6314272c.2787452.2851452.6612486.4450028 1.06.443h7c.4011846.000457.7858336-.1598134 1.068-.445z"/><path id="Shape" d="m35.5 53h-4c-.8284271 0-1.5.6715729-1.5 1.5s.6715729 1.5 1.5 1.5h4c.8284271 0 1.5-.6715729 1.5-1.5s-.6715729-1.5-1.5-1.5z"/><path id="Shape" d="m19.232 48.736c-.1772461-.5044976-.7200142-.7802873-1.232-.626l-3.759 1.141.052-3.927c.0072187-.5364928-.4102389-.9830753-.946-1.012l-3.926-.212 1.387-3.675c.1898-.5018392-.0502581-1.0640342-.544-1.274l-4.872-2.071c-.50810197-.2164956-1.09550438.019898-1.312.528s.01989803 1.0955044.528 1.312l3.99 1.7-1.53 4.056c-.11273544.2983889-.07635776.6326578.09792431.8998112.17428206.2671535.4655566.4351361.78407569.4521888l4.328.233-.056 4.334c-.0041454.3188718.144043.6205996.3989246.8122549.2548817.1916552.585889.2502527.8910754.1577451l4.15-1.26 1.438 4.089c.1828063.5213568.7536432.7958062 1.275.613.5213568-.1828063.7958062-.7536432.613-1.275z"/><path id="Shape" d="m42.444 14.862c.0203829-.319139-.1130963-.6287782-.3591215-.833074-.2460251-.2042958-.5749192-.2786048-.8848785-.199926l-4.2 1.053-1.038-3.506c-.1568489-.5296411-.7133589-.8318488-1.243-.675-.529641.1568489-.8318488.7133589-.675 1.243l1.31 4.424c.151729.513208.6806109.8159929 1.2.687l3.81-.954-.246 3.92c-.0338289.5374757.3640544 1.0052096.9 1.058l3.908.405-1.567 3.6c-.2147145.4921922-.0023691 1.0660988.481 1.3l3.525 1.716-1.154 1.212c-.246156.2590176-.3354293.6296823-.2341915.9723684s.3776062.6053315.725.689c.3473938.0836686.7130355-.0243508.9591915-.2833684l2.1-2.2c.2204173-.2312346.3170913-.5538625.2601537-.8682052-.0569375-.3143427-.2606333-.582564-.5481537-.7217948l-3.904-1.9 1.731-3.971c.127367-.2924433.1075792-.6281035-.0532662-.9035562s-.4434488-.4576466-.7607338-.4904438l-4.312-.447z"/></g></g></svg>