<svg id="Capa_1" enable-background="new 0 0 512 512" height="512" viewBox="0 0 512 512" width="512" xmlns="http://www.w3.org/2000/svg"><g><path d="m474.8 379.56h-31.72c-21.516 0-41.647-9.569-55.229-26.248l-6.496-7.997c-7.99-9.814-17.449-18.227-28.105-25.061-12.59-17.193-29.773-31.101-50.308-39.793-3.816-1.616-8.217.167-9.83 3.982-1.615 3.814.168 8.216 3.982 9.83 39.017 16.515 64.418 54.642 64.418 97.214.001 58.18-47.332 105.513-105.512 105.513s-105.513-47.333-105.513-105.513c0-58.181 47.333-105.514 105.513-105.514 2.709 0 5.443.104 8.128.309 4.14.318 7.734-2.778 8.049-6.908.314-4.131-2.778-7.733-6.908-8.049-3.063-.233-6.181-.352-9.269-.352-39.764 0-75.087 19.363-97.049 49.151-10.734 6.849-20.261 15.308-28.313 25.196l-6.484 7.983c-13.586 16.687-33.718 26.257-55.234 26.257h-31.72c-15.164 0-27.5 12.337-27.5 27.5v80.28c0 9.649 7.851 17.5 17.5 17.5h88.8c4.142 0 7.5-3.357 7.5-7.5s-3.358-7.5-7.5-7.5h-88.8c-1.378 0-2.5-1.121-2.5-2.5v-80.28c0-6.893 5.607-12.5 12.5-12.5h31.72c26.047 0 50.418-11.585 66.872-31.791l4.759-5.859c-3.288 10.958-5.064 22.564-5.064 34.578 0 40.559 20.141 76.5 50.945 98.353h-35.432c-4.142 0-7.5 3.357-7.5 7.5s3.358 7.5 7.5 7.5h64.072c12.785 4.629 26.566 7.159 40.928 7.159s28.144-2.53 40.928-7.16h187.872c9.649 0 17.5-7.851 17.5-17.5v-80.28c0-15.163-12.337-27.5-27.5-27.5zm12.5 107.78c0 1.379-1.121 2.5-2.5 2.5h-159.232c30.804-21.853 50.945-57.794 50.945-98.353 0-11.911-1.749-23.521-5.035-34.544l4.738 5.832c16.447 20.199 40.818 31.784 66.865 31.784h31.72c6.893 0 12.5 5.607 12.5 12.5v80.281z"/><path d="m170.704 391.487c0 39.451 29.18 76.722 70.497 83.984.128.025.256.05.387.069 4.689.802 9.499 1.243 14.413 1.243s9.724-.441 14.413-1.243c.13-.019.257-.043.385-.069 41.209-7.242 70.499-44.387 70.499-83.984 0-46.738-38.026-85.297-85.297-85.297-47.291.001-85.297 38.58-85.297 85.297zm25.026-14.186c4.303-1.501 8.803-2.825 13.456-3.984-1.338 4.421-1.727 9.127-1.056 13.798l2.325 16.138-24.226-3.323c-.832-6.918-.712-13.786.662-21.23 2.99.055 5.987-.404 8.839-1.399zm58.741-9.471c9.42-.068 17.822.452 26.218 1.441 1.818.242 3.419 1.082 4.513 2.378 3.16 3.741 4.517 8.475 3.82 13.326l-2.382 16.539c-.355 2.459-1.193 4.777-2.49 6.889-3.444 5.602-9.362 8.619-15.413 8.619h-25.477c-6.067 0-11.978-3.032-15.411-8.615-1.299-2.115-2.137-4.434-2.491-6.891l-2.383-16.538c-.697-4.854.659-9.587 3.82-13.329 1.093-1.293 2.69-2.132 4.504-2.376 7.754-.944 15.609-1.389 23.172-1.443zm70.637 10.861c1.376 7.446 1.497 14.315.664 21.238l-24.226 3.323 2.325-16.139c.67-4.669.281-9.375-1.057-13.796 4.653 1.16 9.154 2.484 13.458 3.985 2.698.94 5.525 1.41 8.354 1.41.162 0 .322-.018.482-.021zm-135.149 36.891 27.249 3.738c2.21 2.837 4.826 5.258 7.746 7.2l7.498 31.194c-19.665-7.014-35.323-22.541-42.493-42.132zm58.81 45.831-7.077-29.44c.521.024 1.043.05 1.569.05 0 0 26.524-.026 27.046-.05l-7.077 29.44c-2.378.244-4.79.371-7.231.371-2.44-.001-4.852-.127-7.23-.371zm30.778-3.699 7.498-31.194c2.92-1.942 5.536-4.362 7.746-7.2l27.25-3.738c-7.169 19.591-22.828 35.118-42.494 42.132zm40.597-94.932c-20.526-6.998-43.06-10.026-64.397-9.963-21.173.022-43.363 2.964-63.891 9.962 11.002-24.487 35.605-41.591 64.144-41.591 28.539.001 53.142 17.105 64.144 41.592z"/><path d="m445.082 411.923h-16.894c-11.781 0-21.366 9.585-21.366 21.366v1.2c0 11.781 9.585 21.366 21.366 21.366h.946v11.631c0 4.143 3.357 7.5 7.5 7.5s7.5-3.357 7.5-7.5v-11.631h.947c11.781 0 21.365-9.585 21.365-21.366v-1.2c.001-11.781-9.583-21.366-21.364-21.366zm6.365 22.566c0 3.511-2.855 6.366-6.365 6.366h-16.894c-3.511 0-6.366-2.855-6.366-6.366v-1.2c0-3.511 2.855-6.366 6.366-6.366h16.894c3.51 0 6.365 2.855 6.365 6.366z"/><path d="m49.289 443.148c0 15.056 12.249 27.304 27.304 27.304s27.304-12.248 27.304-27.304-12.249-27.304-27.304-27.304-27.304 12.248-27.304 27.304zm39.608 0c0 6.784-5.52 12.304-12.304 12.304s-12.304-5.52-12.304-12.304 5.52-12.304 12.304-12.304 12.304 5.519 12.304 12.304z"/><path d="m9.701 169.128v76.006c0 3.803 1.666 7.39 4.569 9.842 2.909 2.456 6.732 3.494 10.487 2.861 28.989-4.922 44.26-6.7 47.081-7.153 108.637-17.44 268.707-17.757 415.404 7.153.725.123 1.45.183 2.173.183 3.023 0 5.967-1.062 8.314-3.044 2.904-2.452 4.569-6.039 4.569-9.842v-232.247c0-3.803-1.665-7.39-4.569-9.842-2.908-2.456-6.728-3.5-10.487-2.861-98.085 16.653-198.208 22.676-297.583 17.897-4.161-.206-7.653 2.993-7.852 7.131s2.994 7.652 7.131 7.852c99.628 4.791 199.992-1.156 298.36-17.677v145.654c-149.863-12.984-305.419-13.618-462.598 0v-145.654c42.638 7.159 86.091 12.391 129.19 15.55 4.147.302 7.726-2.801 8.028-6.931.303-4.132-2.8-7.726-6.932-8.028-43.456-3.187-87.272-8.5-130.23-15.794-3.759-.639-7.58.405-10.488 2.861-2.904 2.452-4.569 6.039-4.569 9.842v156.241zm238.799-3.053v57.259c-51.12.276-102.232 3.361-153.186 9.279l79.256-65.31c24.631-.749 49.279-1.159 73.93-1.228zm88.93 1.228 79.255 65.31c-50.954-5.918-102.066-9.003-153.186-9.279v-57.259c24.652.069 49.3.479 73.931 1.228zm149.869 75.331c-14.237-2.392-28.493-4.559-42.762-6.507l-82.479-67.967c41.843 1.66 83.617 4.31 125.241 7.937zm-337.356-74.474-82.479 67.967c-14.27 1.948-28.525 4.115-42.762 6.507v-66.537c41.624-3.627 83.397-6.277 125.241-7.937z"/></g></svg>