<?xml version="1.0" encoding="iso-8859-1"?>
<!-- Generator: Adobe Illustrator 19.0.0, SVG Export Plug-In . SVG Version: 6.00 Build 0)  -->
<svg version="1.1" id="Capa_1" xmlns="http://www.w3.org/2000/svg" xmlns:xlink="http://www.w3.org/1999/xlink" x="0px" y="0px"
	 viewBox="0 0 512 512"  fill = "white" style="display:inline-block;position:relative;top:.1em;" xml:space="preserve">
<g>
	<g>
		<path d="M428.719,63.242C387.937,22.46,333.714,0,276.04,0s-111.898,22.46-152.68,63.242
			c-40.362,40.362-62.777,93.883-63.234,150.892l-39.292,78.584c-1.756,3.512-0.512,7.784,2.855,9.804l36.43,21.858V440.36
			c0,4.15,3.365,7.515,7.515,7.515h72.642v56.611c0,4.15,3.365,7.515,7.515,7.515c4.15,0,7.515-3.365,7.515-7.515V440.36
			c0-4.15-3.365-7.515-7.515-7.515H75.147v-112.72c0-2.639-1.385-5.086-3.648-6.444l-34.112-20.467l36.966-73.932
			c0.522-1.044,0.794-2.193,0.794-3.361c0-110.772,90.12-200.892,200.892-200.892s200.892,90.12,200.892,200.892
			c0,62.247-28.164,119.965-77.27,158.356c-1.822,1.424-2.887,3.608-2.887,5.921v124.287c0,4.15,3.365,7.515,7.515,7.515
			c4.15,0,7.515-3.365,7.515-7.515V383.823c50.992-41.246,80.157-102.227,80.157-167.901
			C491.961,158.247,469.502,104.024,428.719,63.242z"/>
	</g>
</g>
<g>
	<g>
		<path d="M276.041,88.173c-57.182,0-103.703,46.521-103.703,103.703c0,42.078,25.555,79.948,64.125,95.874v16.845h-8.517
			c-4.15,0-7.515,3.365-7.515,7.515v56.11c0,21.823,17.755,39.577,39.577,39.577h32.063c21.823,0,39.577-17.755,39.577-39.577
			v-56.11c0-4.15-3.365-7.515-7.515-7.515h-8.517V287.75c17.885-7.372,33.244-19.521,44.653-35.377
			c2.424-3.369,1.658-8.065-1.711-10.488c-3.369-2.423-8.066-1.658-10.488,1.711c-10.661,14.816-25.349,25.847-42.474,31.901
			c-3.003,1.062-5.01,3.901-5.01,7.085v22.013h-49.096v-22.013c0-3.185-2.007-6.024-5.01-7.085
			c-35.359-12.498-59.115-46.104-59.115-83.621c0-48.894,39.779-88.673,88.673-88.673c48.894,0,88.673,39.779,88.673,88.673
			c0,7.513-0.94,14.973-2.793,22.174c-1.035,4.019,1.385,8.116,5.405,9.151c4.021,1.035,8.116-1.385,9.151-5.405
			c2.169-8.424,3.268-17.145,3.268-25.921C379.743,134.694,333.222,88.173,276.041,88.173z M316.619,368.219
			c0,13.535-11.013,24.548-24.548,24.548h-32.063c-13.535,0-24.548-11.012-24.548-24.548v-0.526
			c0.166,0.011,0.332,0.025,0.501,0.025h80.658V368.219z M316.619,352.689h-80.658c-0.169,0-0.335,0.014-0.501,0.025v-9.043h81.159
			V352.689z M308.102,319.624h8.517v9.018H235.46v-9.018h8.517H308.102z"/>
	</g>
</g>
<g>
	<g>
		<path d="M324.133,176.344h-32.564v-40.579c0-6.78-8.694-10.061-13.171-4.949l-56.11,64.125
			c-4.169,4.766-0.663,12.463,5.656,12.463h32.564v40.579c0.001,3.131,1.942,5.934,4.872,7.035c2.901,1.088,6.258,0.245,8.299-2.086
			l56.11-64.125C333.958,184.041,330.452,176.344,324.133,176.344z M275.539,227.984V199.89c0-4.15-3.365-7.515-7.515-7.515h-23.518
			l32.035-36.611v28.094c0,4.15,3.365,7.515,7.515,7.515h23.518L275.539,227.984z"/>
	</g>
</g>
<g>
	<g>
		<path d="M276.04,48.094c-4.15,0-7.515,3.365-7.515,7.515V71.64c0,4.15,3.365,7.515,7.515,7.515c4.15,0,7.515-3.365,7.515-7.515
			V55.609C283.554,51.458,280.19,48.094,276.04,48.094z"/>
	</g>
</g>
<g>
	<g>
		<path d="M196.333,101.542l-11.335-11.336c-2.935-2.935-7.693-2.935-10.627,0c-2.935,2.935-2.935,7.693,0,10.627l11.335,11.336
			c3.057,3.056,8.216,2.851,11.026-0.431C199.252,108.797,199.069,104.278,196.333,101.542z"/>
	</g>
</g>
<g>
	<g>
		<path d="M155.805,184.36h-16.031c-4.15,0-7.515,3.365-7.515,7.515s3.365,7.515,7.515,7.515h16.031c4.15,0,7.515-3.365,7.515-7.515
			S159.955,184.36,155.805,184.36z"/>
	</g>
</g>
<g>
	<g>
		<path d="M196.333,271.58c-2.934-2.935-7.692-2.935-10.627,0l-11.335,11.335c-2.736,2.735-2.918,7.255-0.4,10.196
			c2.81,3.281,7.97,3.488,11.026,0.431l11.335-11.335C199.268,279.272,199.268,274.514,196.333,271.58z"/>
	</g>
</g>
<g>
	<g>
		<path d="M377.707,282.916l-11.335-11.335c-2.935-2.935-7.693-2.935-10.627,0c-2.935,2.935-2.935,7.693,0,10.627l11.335,11.335
			c3.147,3.147,8.461,2.828,11.153-0.701C380.494,289.878,380.375,285.583,377.707,282.916z"/>
	</g>
</g>
<g>
	<g>
		<path d="M412.306,184.36h-16.031c-4.15,0-7.515,3.365-7.515,7.515s3.365,7.515,7.515,7.515h16.031c4.15,0,7.515-3.365,7.515-7.515
			S416.456,184.36,412.306,184.36z"/>
	</g>
</g>
<g>
	<g>
		<path d="M377.707,90.206c-2.934-2.934-7.692-2.934-10.627,0l-11.335,11.335c-2.671,2.67-2.781,6.96-0.526,9.925
			c2.687,3.534,8.01,3.845,11.153,0.701l11.335-11.335C380.642,97.898,380.642,93.14,377.707,90.206z"/>
	</g>
</g>
<g>
</g>
<g>
</g>
<g>
</g>
<g>
</g>
<g>
</g>
<g>
</g>
<g>
</g>
<g>
</g>
<g>
</g>
<g>
</g>
<g>
</g>
<g>
</g>
<g>
</g>
<g>
</g>
<g>
</g>
</svg>
