<?xml version="1.0" encoding="iso-8859-1"?>
<!-- Generator: Adobe Illustrator 19.0.0, SVG Export Plug-In . SVG Version: 6.00 Build 0)  -->
<svg version="1.1" id="Layer_1" xmlns="http://www.w3.org/2000/svg" xmlns:xlink="http://www.w3.org/1999/xlink" x="0px" y="0px"
	 viewBox="0 0 512 512"  style="display:inline-block;position:relative;top:.1em;" xml:space="preserve">
<g>
	<g>
		<path d="M388.711,0H123.289C80.074,0,44.916,35.158,44.916,78.373v265.422c0,43.215,35.158,78.373,78.373,78.373h190.184v79.383
			c0,4.201,2.515,7.993,6.385,9.626c1.313,0.554,2.692,0.823,4.063,0.823c2.67,0,5.3-1.025,7.29-2.961l114.042-110.982
			c0.263-0.257,0.51-0.525,0.742-0.802c13.606-14.57,21.09-33.526,21.09-53.46V78.373C467.084,35.158,431.926,0,388.711,0z
			 M446.185,343.795c0,14.786-5.62,28.842-15.824,39.576c-0.049,0.052-0.098,0.105-0.146,0.157l-95.842,93.272v-65.082
			c0-5.771-4.679-10.45-10.45-10.45H123.289c-31.691,0-57.473-25.782-57.473-57.473V78.373c0-31.691,25.783-57.473,57.473-57.473
			h265.423c31.691,0,57.473,25.783,57.473,57.473V343.795z"/>
	</g>
</g>
<g>
	<g>
		<path d="M286.998,66.621c-6.179-6.471-14.508-10.035-23.456-10.035h-14.873c-8.933,0-17.253,3.556-23.426,10.014
			c-6.173,6.457-9.351,14.928-8.949,23.851l7.424,165.068c0.781,17.349,14.996,30.938,32.362,30.938
			c17.268,0,31.421-13.513,32.219-30.764l7.641-165.178C296.352,81.579,293.177,73.092,286.998,66.621z M267.422,254.728
			c-0.281,6.073-5.264,10.831-11.343,10.831c-6.161,0-11.205-4.823-11.482-10.978l-7.424-165.07
			c-0.143-3.168,0.985-6.177,3.178-8.469c2.192-2.294,5.146-3.556,8.319-3.556v-0.001h14.873c3.181,0,6.143,1.268,8.341,3.569
			c2.198,2.302,3.327,5.319,3.18,8.498L267.422,254.728z"/>
	</g>
</g>
<g>
	<g>
		<path d="M256,301.978c-17.286,0-31.349,14.063-31.349,31.349c0,17.286,14.063,31.349,31.349,31.349
			c17.286,0,31.349-14.063,31.349-31.349C287.349,316.041,273.286,301.978,256,301.978z M256,343.777
			c-5.762,0-10.45-4.688-10.45-10.45s4.688-10.45,10.45-10.45c5.761,0,10.45,4.688,10.45,10.45S261.762,343.777,256,343.777z"/>
	</g>
</g>
<g>
	<g>
		<path d="M97.166,268.218c-5.77,0-10.45,4.678-10.45,10.45v0.137c0,5.771,4.679,10.45,10.45,10.45s10.45-4.678,10.45-10.45v-0.137
			C107.616,272.897,102.936,268.218,97.166,268.218z"/>
	</g>
</g>
<g>
	<g>
		<path d="M97.165,132.913c-5.77,0-10.45,4.678-10.45,10.45v101.499c0,5.771,4.679,10.45,10.45,10.45s10.45-4.678,10.45-10.45
			V143.362C107.615,137.591,102.935,132.913,97.165,132.913z"/>
	</g>
</g>
<g>
</g>
<g>
</g>
<g>
</g>
<g>
</g>
<g>
</g>
<g>
</g>
<g>
</g>
<g>
</g>
<g>
</g>
<g>
</g>
<g>
</g>
<g>
</g>
<g>
</g>
<g>
</g>
<g>
</g>
</svg>
