<svg id="Capa_1" enable-background="new 0 0 512.002 512.002" height="512" viewBox="0 0 512.002 512.002" width="512" fill = "white" style="display:inline-block;position:relative;top:.1em;" xmlns="http://www.w3.org/2000/svg"><g><path d="m256.001 150c28.948 0 52.5-23.552 52.5-52.5v-45c0-7.025-3.014-13.703-8.1-18.392.282-6.911-2.31-13.764-7.277-18.732-4.968-4.967-11.827-7.574-18.731-7.276-4.689-5.086-11.367-8.1-18.392-8.1s-13.703 3.014-18.392 8.1c-6.893-.282-13.764 2.31-18.731 7.276-4.968 4.969-7.56 11.821-7.277 18.732-5.086 4.688-8.1 11.366-8.1 18.392v45c0 28.948 23.552 52.5 52.5 52.5zm-37.5-97.5c0-3.563 1.847-6.781 4.94-8.606 2.877-1.698 4.284-5.095 3.45-8.33-.896-3.479.073-7.061 2.594-9.58 2.52-2.52 6.1-3.49 9.579-2.593 3.235.835 6.632-.573 8.33-3.45 1.825-3.094 5.043-4.94 8.606-4.94s6.781 1.847 8.606 4.94c1.699 2.877 5.097 4.285 8.33 3.45 3.479-.897 7.061.073 9.579 2.593 2.521 2.52 3.49 6.102 2.594 9.58-.834 3.235.573 6.632 3.45 8.33 3.094 1.825 4.94 5.043 4.94 8.606v8.308c-9.535-9.745-22.819-15.808-37.498-15.808s-27.963 6.063-37.5 15.808zm37.5 7.5c20.678 0 37.5 16.822 37.5 37.5s-16.822 37.5-37.5 37.5-37.5-16.822-37.5-37.5 16.822-37.5 37.5-37.5z"/><path d="m396.585 271.671c-1.045-1.897-2.126-3.859-2.392-5.204-.291-1.468-.049-3.667.207-5.995.464-4.208.988-8.979-.991-13.751-2.011-4.851-5.958-8.004-9.13-10.538-1.717-1.371-3.492-2.789-4.282-3.969-.809-1.209-1.45-3.41-2.07-5.54-1.129-3.878-2.535-8.704-6.214-12.384-3.681-3.68-8.507-5.086-12.386-6.215-2.129-.62-4.331-1.262-5.538-2.07-1.181-.79-2.599-2.565-3.97-4.282-2.534-3.172-5.688-7.119-10.538-9.132-4.771-1.978-9.541-1.452-13.75-.99-2.33.255-4.53.496-5.998.207-1.344-.266-3.306-1.347-5.204-2.392-1.928-1.062-4.113-2.26-6.548-3.142-2.829-12.173-13.759-21.274-26.78-21.274h-50c-13.021 0-23.951 9.101-26.781 21.274-2.435.881-4.62 2.08-6.548 3.142-1.898 1.045-3.86 2.126-5.206 2.392-1.469.289-3.667.048-5.994-.207-4.21-.466-8.98-.989-13.752.991-4.85 2.012-8.004 5.959-10.537 9.131-1.371 1.717-2.789 3.491-3.969 4.281-1.208.809-3.41 1.45-5.539 2.07-3.879 1.129-8.705 2.535-12.386 6.215-3.679 3.68-5.085 8.506-6.214 12.384-.62 2.129-1.262 4.332-2.071 5.541-.79 1.179-2.564 2.597-4.281 3.969-3.172 2.533-7.119 5.687-9.132 10.537-1.978 4.772-1.453 9.543-.99 13.751.256 2.328.498 4.527.207 5.997-.266 1.344-1.347 3.306-2.392 5.204-1.968 3.573-4.416 8.021-4.416 13.328 0 4.143 3.357 7.5 7.5 7.5s7.5-3.357 7.5-7.5c0-1.451 1.3-3.812 2.556-6.094 1.523-2.766 3.25-5.901 3.967-9.528.738-3.729.34-7.352-.012-10.548-.266-2.414-.566-5.15-.063-6.364.533-1.285 2.714-3.027 4.638-4.563 2.485-1.986 5.304-4.237 7.384-7.344 2.099-3.135 3.113-6.618 4.008-9.691.685-2.349 1.46-5.012 2.42-5.971.96-.961 3.623-1.736 5.973-2.421 3.072-.895 6.556-1.909 9.689-4.007 3.107-2.081 5.357-4.898 7.344-7.384 1.536-1.924 3.278-4.104 4.563-4.638 1.214-.502 3.95-.202 6.365.063 3.194.353 6.818.752 10.545.013 3.029-.598 5.711-1.9 8.124-3.2v149.177c0 9.376 5.767 17.428 13.938 20.803-.213.5-.453 1.011-.72 1.576-1.434 3.035-3.219 6.813-3.219 13.786s1.785 10.752 3.219 13.787c1.11 2.351 1.781 3.77 1.781 7.379 0 3.608-.671 5.027-1.781 7.378-1.434 3.035-3.219 6.813-3.219 13.787s1.785 10.752 3.219 13.787c1.11 2.351 1.781 3.77 1.781 7.379s-.671 5.029-1.781 7.381c-1.434 3.035-3.219 6.813-3.219 13.788s1.785 10.753 3.219 13.788c.385.815.717 1.519.987 2.24l-24.078 8.025c-3.93 1.31-6.053 5.558-4.743 9.487 1.048 3.143 3.974 5.13 7.114 5.13.786 0 1.586-.125 2.373-.387l30-10c3.063-1.021 5.128-3.887 5.128-7.115 0-6.975-1.784-10.752-3.219-13.787-1.11-2.353-1.781-3.771-1.781-7.382s.671-5.029 1.781-7.382c1.435-3.035 3.219-6.813 3.219-13.787s-1.785-10.752-3.219-13.787c-1.11-2.351-1.781-3.77-1.781-7.379s.671-5.028 1.781-7.379c1.434-3.035 3.219-6.813 3.219-13.786s-1.785-10.752-3.219-13.787c-1.11-2.351-1.781-3.77-1.781-7.379 0-3.608.671-5.027 1.781-7.378.916-1.94 1.974-4.187 2.619-7.374 9.04-2.921 15.599-11.414 15.599-21.413v-8.035c4.947.712 10.049.712 15 0v8.035c0 10 6.559 18.492 15.599 21.413.646 3.187 1.703 5.435 2.62 7.375 1.11 2.352 1.781 3.771 1.781 7.381s-.671 5.029-1.781 7.382c-1.435 3.035-3.219 6.813-3.219 13.787s1.785 10.752 3.219 13.788c1.11 2.351 1.781 3.77 1.781 7.379 0 3.608-.671 5.027-1.781 7.378-1.434 3.035-3.219 6.813-3.219 13.787s1.785 10.751 3.219 13.786c1.11 2.351 1.781 3.77 1.781 7.379s-.671 5.028-1.781 7.379c-1.434 3.035-3.219 6.813-3.219 13.786 0 3.229 2.065 6.095 5.128 7.115l30 10c.787.262 1.587.387 2.373.387 3.141 0 6.066-1.987 7.114-5.13 1.31-3.93-.813-8.178-4.743-9.487l-24.077-8.025c.27-.721.602-1.423.986-2.237 1.434-3.035 3.219-6.813 3.219-13.787s-1.785-10.752-3.219-13.787c-1.11-2.351-1.781-3.77-1.781-7.378 0-3.609.671-5.028 1.781-7.379 1.434-3.035 3.219-6.813 3.219-13.786s-1.784-10.751-3.219-13.787c-1.11-2.351-1.781-3.771-1.781-7.38s.671-5.029 1.781-7.381c1.434-3.035 3.219-6.813 3.219-13.788s-1.784-10.752-3.219-13.787c-.267-.566-.507-1.077-.72-1.578 8.172-3.375 13.939-11.427 13.939-20.803v-149.179c2.413 1.3 5.095 2.602 8.122 3.2 3.729.737 7.352.34 10.548-.012 2.415-.267 5.151-.568 6.364-.063 1.285.533 3.027 2.714 4.563 4.638 1.986 2.486 4.237 5.304 7.346 7.385 3.133 2.098 6.616 3.112 9.688 4.007 2.35.685 5.013 1.46 5.973 2.421.96.959 1.735 3.622 2.42 5.971.895 3.073 1.909 6.556 4.007 9.69 2.081 3.107 4.898 5.358 7.385 7.344 1.924 1.537 4.104 3.278 4.637 4.563.504 1.215.203 3.951-.063 6.365-.352 3.196-.751 6.818-.013 10.547.717 3.628 2.443 6.763 3.966 9.528 1.257 2.282 2.557 4.643 2.557 6.094 0 4.143 3.357 7.5 7.5 7.5s7.5-3.357 7.5-7.5c.002-5.308-2.447-9.755-4.414-13.329zm-103.084 80.829c0 4.136-3.364 7.5-7.5 7.5s-7.5-3.364-7.5-7.5v-17.57c0-2.435-1.182-4.718-3.17-6.124-1.283-.907-2.8-1.376-4.331-1.376-.84 0-1.686.142-2.499.429-8.039 2.842-16.963 2.842-25 0-2.295-.81-4.842-.459-6.83.947s-3.17 3.689-3.17 6.124v17.57c0 4.136-3.364 7.5-7.5 7.5s-7.5-3.364-7.5-7.5v-52.5h75zm0-67.5h-75v-92.5c0-6.893 5.607-12.5 12.5-12.5h50c6.893 0 12.5 5.607 12.5 12.5z"/></g></svg>
